<svg width="80" height="80" fill="none" xmlns="http://www.w3.org/2000/svg"><path d="M0 0h80v80H0V0z" fill="#101010"/><path d="M76.493 1.422h2.085v2.085h-2.085V1.422zm-2.086 0h2.086v2.085h-2.086V1.422zm-2.085 0h2.085v2.085h-2.085V1.422zm-2.085 0h2.085v2.085h-2.085V1.422zm-2.086 0h2.086v2.085H68.15V1.422z" fill="#FF375F"/><path d="M66.066 1.422h2.085v2.085h-2.085V1.422zm-2.086 0h2.086v2.085h-2.085V1.422zm-4.17 0h2.085v2.085H59.81V1.422zm-4.17 0h2.085v2.085H55.64V1.422zm-2.086 0h2.086v2.085h-2.086V1.422zm-2.085 0h2.085v2.085H51.47V1.422zm-4.171 0h2.086v2.085h-2.086V1.422zm-2.085 0h2.085v2.085h-2.085V1.422zm-2.085 0h2.085v2.085h-2.085V1.422zm-2.085 0h2.085v2.085h-2.085V1.422zm-2.086 0h2.086v2.085h-2.086V1.422zm-6.255 0h2.085v2.085h-2.085V1.422zm-8.342 0h2.086v2.085H24.36V1.422zm-6.255 0h2.085v2.085h-2.085V1.422zm-4.171 0h2.085v2.085h-2.085V1.422zm-2.085 0h2.085v2.085h-2.085V1.422zm-2.086 0h2.086v2.085H9.763V1.422zm-2.085 0h2.085v2.085H7.678V1.422zm-2.085 0h2.085v2.085H5.593V1.422zm-2.086 0h2.086v2.085H3.507V1.422zm-2.085 0h2.085v2.085H1.422V1.422zm75.071 2.085h2.085v2.085h-2.085V3.507zm-12.513 0h2.086v2.085h-2.085V3.507zm-6.255 0h2.085v2.085h-2.085V3.507zm-6.256 0h2.085v2.085H51.47V3.507zm-8.341 0h2.085v2.085h-2.085V3.507zm-8.341 0h2.085v2.085h-2.085V3.507zm-16.682 0h2.085v2.085h-2.085V3.507zm-4.171 0h2.085v2.085h-2.085V3.507zm-12.512 0h2.085v2.085H1.422V3.507zm75.071 2.085h2.085v2.086h-2.085V5.592zm-4.171 0h2.085v2.086h-2.085V5.592zm-2.085 0h2.085v2.086h-2.085V5.592zm-2.086 0h2.086v2.086H68.15V5.592zm-4.171 0h2.086v2.086h-2.085V5.592zm-6.255 0h2.085v2.086h-2.085V5.592zm-2.085 0h2.085v2.086H55.64V5.592zm-2.086 0h2.086v2.086h-2.086V5.592zm-4.17 0h2.085v2.086h-2.085V5.592zm-6.256 0h2.085v2.086h-2.085V5.592zm-4.171 0h2.086v2.086h-2.086V5.592zm-4.17 0h2.085v2.086h-2.085V5.592zm-4.171 0h2.086v2.086h-2.086V5.592zm-4.17 0h2.085v2.086h-2.085V5.592zm-12.512 0h2.085v2.086h-2.085V5.592zm-4.171 0h2.086v2.086H9.763V5.592zm-2.085 0h2.085v2.086H7.678V5.592zm-2.085 0h2.085v2.086H5.593V5.592zm-4.171 0h2.085v2.086H1.422V5.592zm75.071 2.086h2.085v2.085h-2.085V7.678zm-4.171 0h2.085v2.085h-2.085V7.678zm-2.085 0h2.085v2.085h-2.085V7.678zm-2.086 0h2.086v2.085H68.15V7.678zm-4.171 0h2.086v2.085h-2.085V7.678zm-8.34 0h2.085v2.085H55.64V7.678zm-2.086 0h2.086v2.085h-2.086V7.678zm-2.084 0h2.084v2.085H51.47V7.678zm-2.086 0h2.085v2.085h-2.085V7.678zm-2.086 0h2.086v2.085h-2.086V7.678zm-2.085 0h2.085v2.085h-2.085V7.678zm-2.085 0h2.085v2.085h-2.085V7.678zm-2.085 0h2.085v2.085h-2.085V7.678zm-4.171 0h2.085v2.085h-2.085V7.678zm-2.085 0h2.085v2.085h-2.085V7.678zm-2.085 0h2.085v2.085h-2.085V7.678zm-2.086 0h2.086v2.085h-2.086V7.678zm-2.086 0h2.086v2.085h-2.085V7.678zm-6.255 0h2.085v2.085h-2.085V7.678zm-2.085 0h2.085v2.085H20.19V7.678zm-6.256 0h2.085v2.085h-2.085V7.678zm-4.171 0h2.086v2.085H9.763V7.678zm-2.085 0h2.085v2.085H7.678V7.678zm-2.085 0h2.085v2.085H5.593V7.678zm-4.171 0h2.085v2.085H1.422V7.678zm75.071 2.085h2.085v2.085h-2.085V9.763zm-4.171 0h2.085v2.085h-2.085V9.763zm-2.085 0h2.085v2.085h-2.085V9.763zm-2.086 0h2.086v2.085H68.15V9.763zm-4.171 0h2.086v2.085h-2.085V9.763zm-4.17 0h2.085v2.085H59.81V9.763zm-2.085 0h2.085v2.085h-2.085V9.763zm-6.256 0h2.085v2.085H51.47V9.763zm-2.085 0h2.085v2.085h-2.085V9.763zm-8.341 0h2.085v2.085h-2.085V9.763zm-2.086 0h2.086v2.085h-2.086V9.763zm-8.341 0h2.086v2.085h-2.086V9.763zm-4.17 0h2.085v2.085h-2.085V9.763zm-4.171 0h2.085v2.085h-2.085V9.763zm-4.17 0h2.085v2.085h-2.085V9.763zm-4.171 0h2.085v2.085h-2.085V9.763zm-4.171 0h2.086v2.085H9.763V9.763zm-2.085 0h2.085v2.085H7.678V9.763zm-2.085 0h2.085v2.085H5.593V9.763zm-4.171 0h2.085v2.085H1.422V9.763zm75.071 2.085h2.085v2.086h-2.085v-2.086zm-12.513 0h2.086v2.086h-2.085v-2.086zm-10.426 0h2.086v2.086h-2.086v-2.086zm-4.17 0h2.085v2.086h-2.085v-2.086zm-2.086 0h2.086v2.086h-2.086v-2.086zm-2.085 0h2.085v2.086h-2.085v-2.086zm-8.341 0h2.085v2.086h-2.085v-2.086zm-6.256 0h2.086v2.086h-2.086v-2.086zm-2.086 0h2.086v2.086h-2.085v-2.086z" fill="#FF375F"/><path d="M26.446 11.848h2.085v2.086h-2.085v-2.086zm-8.341 0h2.085v2.086h-2.085v-2.086zm-4.171 0h2.085v2.086h-2.085v-2.086zm-12.512 0h2.085v2.086H1.422v-2.086zm75.071 2.086h2.085v2.085h-2.085v-2.085zm-2.086 0h2.086v2.085h-2.086v-2.085zm-2.085 0h2.085v2.085h-2.085v-2.085zm-2.085 0h2.085v2.085h-2.085v-2.085zm-2.086 0h2.086v2.085H68.15v-2.085z" fill="#FF375F"/><path d="M66.066 13.934h2.085v2.085h-2.085v-2.085zm-2.086 0h2.086v2.085h-2.085v-2.085zm-4.17 0h2.085v2.085H59.81v-2.085zm-4.17 0h2.085v2.085H55.64v-2.085zm-4.17 0h2.084v2.085H51.47v-2.085zm-4.172 0h2.086v2.085h-2.086v-2.085zm-4.17 0h2.085v2.085h-2.085v-2.085zm-4.171 0h2.086v2.085h-2.086v-2.085zm-4.17 0h2.085v2.085h-2.085v-2.085zm-4.171 0h2.086v2.085h-2.086v-2.085zm-4.17 0h2.085v2.085h-2.085v-2.085zm-4.171 0h2.085v2.085h-2.085v-2.085zm-4.17 0h2.085v2.085h-2.085v-2.085zm-4.171 0h2.085v2.085h-2.085v-2.085z" fill="#FF375F"/><path d="M11.849 13.934h2.085v2.085h-2.085v-2.085zm-2.086 0h2.086v2.085H9.763v-2.085zm-2.085 0h2.085v2.085H7.678v-2.085zm-2.085 0h2.085v2.085H5.593v-2.085zm-2.086 0h2.086v2.085H3.507v-2.085zm-2.085 0h2.085v2.085H1.422v-2.085zm58.388 2.085h2.085v2.085H59.81V16.02zm-4.17 0h2.085v2.085H55.64V16.02zm-2.086 0h2.086v2.085h-2.086V16.02zm-4.17 0h2.085v2.085h-2.085V16.02zm-14.597 0h2.085v2.085h-2.085V16.02zm-2.085 0h2.085v2.085h-2.085V16.02zm-4.172 0h2.086v2.085h-2.085V16.02z" fill="#FF375F"/><path d="M26.446 16.019h2.085v2.085h-2.085V16.02zm-4.171 0h2.085v2.085h-2.085V16.02zm54.218 2.085h2.085v2.085h-2.085v-2.085zm-6.256 0h2.085v2.085h-2.085v-2.085zm-2.086 0h2.086v2.085H68.15v-2.085z" fill="#FF375F"/><path d="M66.066 18.104h2.085v2.085h-2.085v-2.085zm-2.086 0h2.086v2.085h-2.085v-2.085z" fill="#FF375F"/><path d="M61.895 18.104h2.086v2.085h-2.086v-2.085zm-2.085 0h2.085v2.085H59.81v-2.085zm-2.085 0h2.085v2.085h-2.085v-2.085zm-4.171 0h2.086v2.085h-2.086v-2.085zm-4.17 0h2.085v2.085h-2.085v-2.085zm-2.086 0h2.086v2.085h-2.086v-2.085zm-2.085 0h2.085v2.085h-2.085v-2.085zm-2.085 0h2.085v2.085h-2.085v-2.085zm-2.085 0h2.085v2.085h-2.085v-2.085zm-2.086 0h2.086v2.085h-2.086v-2.085zm-10.427 0h2.086v2.085h-2.085v-2.085zm-4.17 0h2.086v2.085H24.36v-2.085zm-6.255 0h2.085v2.085h-2.085v-2.085zm-2.085 0h2.085v2.085h-2.086v-2.085zm-2.086 0h2.085v2.085h-2.085v-2.085zm-4.171 0h2.086v2.085H9.763v-2.085zm-8.341 0h2.085v2.085H1.422v-2.085zm75.071 2.086h2.085v2.085h-2.085v-2.086zm-4.171 0h2.085v2.085h-2.085v-2.086zm-2.085 0h2.085v2.085h-2.085v-2.086zm-4.171 0h2.085v2.085h-2.085v-2.086zm-4.171 0h2.086v2.085h-2.086v-2.086zm-4.17 0h2.085v2.085h-2.085v-2.086zm-8.341 0h2.085v2.085h-2.085v-2.086zm-2.086 0h2.086v2.085h-2.086v-2.086zm-2.085 0h2.085v2.085h-2.085v-2.086zm-2.085 0h2.085v2.085h-2.085v-2.086zm-2.085 0h2.085v2.085h-2.085v-2.086zm-4.171 0h2.085v2.085h-2.085v-2.086zm-2.085 0h2.085v2.085h-2.085v-2.086zm-4.171 0h2.086v2.085h-2.086v-2.086zm-2.086 0h2.086v2.085h-2.085v-2.086zm-12.51 0h2.085v2.085h-2.086v-2.086zm-6.257 0h2.086v2.085H9.763v-2.086zm-4.17 0h2.085v2.085H5.593v-2.086zm-2.086 0h2.086v2.085H3.507v-2.086zm64.644 2.085h2.086v2.085H68.15v-2.085z" fill="#FF375F"/><path d="M66.066 22.275h2.085v2.085h-2.085v-2.085zm-2.086 0h2.086v2.085h-2.085v-2.085zm-8.34 0h2.085v2.085H55.64v-2.085zm-4.17 0h2.084v2.085H51.47v-2.085zm-6.257 0h2.085v2.085h-2.085v-2.085zm-2.085 0h2.085v2.085h-2.085v-2.085zm-2.085 0h2.085v2.085h-2.085v-2.085zm-6.256 0h2.085v2.085h-2.085v-2.085zm-2.085 0h2.085v2.085h-2.085v-2.085zm-6.256 0h2.085v2.085h-2.085v-2.085zm-4.171 0h2.085v2.085h-2.085v-2.085z" fill="#FF375F"/><path d="M20.19 22.275h2.085v2.085H20.19v-2.085zm-2.085 0h2.085v2.085h-2.085v-2.085zm-2.085 0h2.085v2.085h-2.086v-2.085zm-2.086 0h2.085v2.085h-2.085v-2.085zm-4.171 0h2.086v2.085H9.763v-2.085zm-8.341 0h2.085v2.085H1.422v-2.085zm75.071 2.085h2.085v2.085h-2.085V24.36zm-2.086 0h2.086v2.085h-2.086V24.36zm-8.341 0h2.085v2.085h-2.085V24.36zm-6.256 0h2.085v2.085H59.81V24.36zm-4.17 0h2.085v2.085H55.64V24.36zm-2.086 0h2.086v2.085h-2.086V24.36zm-6.256 0h2.086v2.085h-2.086V24.36zm-2.085 0h2.085v2.085h-2.085V24.36zm-2.085 0h2.085v2.085h-2.085V24.36zm-2.085 0h2.085v2.085h-2.085V24.36zm-4.171 0h2.085v2.085h-2.085V24.36zm-10.426 0h2.085v2.085h-2.085V24.36zm-2.086 0h2.086v2.085H24.36V24.36zm-4.17 0h2.085v2.085H20.19V24.36zm-10.427 0h2.086v2.085H9.763V24.36zm-2.085 0h2.085v2.085H7.678V24.36zm-4.171 0h2.086v2.085H3.507V24.36zm72.986 2.085h2.085v2.086h-2.085v-2.086zm-8.342 0h2.086v2.086H68.15v-2.086z" fill="#FF375F"/><path d="M66.066 26.445h2.085v2.086h-2.085v-2.086zm-2.086 0h2.086v2.086h-2.085v-2.086z" fill="#FF375F"/><path d="M61.895 26.445h2.086v2.086h-2.086v-2.086zm-4.17 0h2.085v2.086h-2.085v-2.086zm-8.341 0h2.085v2.086h-2.085v-2.086zm-2.086 0h2.086v2.086h-2.086v-2.086zm-10.426 0h2.085v2.086h-2.085v-2.086zm-2.085 0h2.085v2.086h-2.085v-2.086zm-2.085 0h2.085v2.086h-2.085v-2.086zm-4.172 0h2.086v2.086h-2.085v-2.086zm-6.255 0h2.085v2.086h-2.085v-2.086z" fill="#FF375F"/><path d="M20.19 26.445h2.085v2.086H20.19v-2.086zm-6.256 0h2.085v2.086h-2.085v-2.086zm-2.085 0h2.085v2.086h-2.085v-2.086zm-2.086 0h2.086v2.086H9.763v-2.086zm-4.17 0h2.085v2.086H5.593v-2.086zm-2.086 0h2.086v2.086H3.507v-2.086zm72.986 2.085h2.085v2.086h-2.085V28.53zm-16.683 0h2.085v2.086H59.81V28.53zm-2.085 0h2.085v2.086h-2.085V28.53zm-8.341 0h2.085v2.086h-2.085V28.53zm-2.086 0h2.086v2.086h-2.086V28.53zm-2.085 0h2.085v2.086h-2.085V28.53zm-2.085 0h2.085v2.086h-2.085V28.53zm-2.085 0h2.085v2.086h-2.085V28.53zm-2.086 0h2.086v2.086h-2.086V28.53zm-4.17 0h2.085v2.086h-2.085V28.53zm-2.085 0h2.085v2.086h-2.085V28.53zm-8.342 0h2.086v2.086H24.36V28.53zm-2.085 0h2.085v2.086h-2.085V28.53z" fill="#FF375F"/><path d="M20.19 28.53h2.085v2.086H20.19V28.53zm-2.085 0h2.085v2.086h-2.085V28.53zm-2.085 0h2.085v2.086h-2.086V28.53zm-10.427 0h2.085v2.086H5.593V28.53zm-4.171 0h2.085v2.086H1.422V28.53zm75.071 2.086h2.085V32.7h-2.085v-2.085zm-2.086 0h2.086V32.7h-2.086v-2.085zm-4.17 0h2.085V32.7h-2.085v-2.085zm-6.257 0h2.086V32.7h-2.085v-2.085z" fill="#FF375F"/><path d="M61.895 30.616h2.086V32.7h-2.086v-2.085zm-4.17 0h2.085V32.7h-2.085v-2.085zm-2.085 0h2.085V32.7H55.64v-2.085zm-6.256 0h2.085V32.7h-2.085v-2.085zm-2.086 0h2.086V32.7h-2.086v-2.085zm-2.085 0h2.085V32.7h-2.085v-2.085zm-6.256 0h2.086V32.7h-2.086v-2.085zm-2.085 0h2.085V32.7h-2.085v-2.085zm-4.17 0h2.085V32.7h-2.085v-2.085zm-2.086 0h2.086V32.7h-2.086v-2.085zm-2.086 0h2.086V32.7h-2.085v-2.085zm-6.255 0h2.085V32.7h-2.085v-2.085zm-6.255 0h2.085V32.7h-2.086v-2.085zm-2.086 0h2.085V32.7h-2.085v-2.085zm-6.256 0h2.085V32.7H7.678v-2.085zm-2.085 0h2.085V32.7H5.593v-2.085zm-4.171 0h2.085V32.7H1.422v-2.085zm70.9 2.085h2.085v2.085h-2.085v-2.085zm-2.085 0h2.085v2.085h-2.085v-2.085zm-4.171 0h2.085v2.085h-2.085v-2.085zm-4.171 0h2.086v2.085h-2.086v-2.085zm-2.085 0h2.085v2.085H59.81v-2.085zm-8.34 0h2.084v2.085H51.47v-2.085zm-2.086 0h2.085v2.085h-2.085v-2.085zm-2.086 0h2.086v2.085h-2.086v-2.085zm-2.085 0h2.085v2.085h-2.085v-2.085zm-2.085 0h2.085v2.085h-2.085v-2.085zm-4.171 0h2.086v2.085h-2.086v-2.085zm-2.085 0h2.085v2.085h-2.085v-2.085zm-4.17 0h2.085v2.085h-2.085v-2.085zm-2.086 0h2.086v2.085h-2.086v-2.085zm-2.086 0h2.086v2.085h-2.085v-2.085z" fill="#FF375F"/><path d="M26.446 32.701h2.085v2.085h-2.085v-2.085zm-8.341 0h2.085v2.085h-2.085v-2.085zm-2.085 0h2.085v2.085h-2.086v-2.085zm-2.086 0h2.085v2.085h-2.085v-2.085zm-2.085 0h2.085v2.085h-2.085v-2.085zm-6.256 0h2.085v2.085H5.593v-2.085zm-2.086 0h2.086v2.085H3.507v-2.085zm72.986 2.085h2.085v2.086h-2.085v-2.086zm-8.342 0h2.086v2.086H68.15v-2.086zm-4.171 0h2.086v2.086h-2.085v-2.086z" fill="#FF375F"/><path d="M61.895 34.786h2.086v2.086h-2.086v-2.086zm-4.17 0h2.085v2.086h-2.085v-2.086zm-2.085 0h2.085v2.086H55.64v-2.086zm-4.171 0h2.085v2.086H51.47v-2.086zm-2.085 0h2.085v2.086h-2.085v-2.086zm-2.086 0h2.086v2.086h-2.086v-2.086zm-4.17 0h2.085v2.086h-2.085v-2.086zm-6.256 0h2.085v2.086h-2.085v-2.086zm-4.17 0h2.085v2.086h-2.085v-2.086zm-4.172 0h2.086v2.086h-2.085v-2.086zm-4.17 0h2.086v2.086H24.36v-2.086zm-2.085 0h2.085v2.086h-2.085v-2.086zm-6.255 0h2.085v2.086h-2.086v-2.086zm-4.171 0h2.085v2.086h-2.085v-2.086zm-2.086 0h2.086v2.086H9.763v-2.086zm-6.256 0h2.086v2.086H3.507v-2.086zm70.9 2.086h2.086v2.085h-2.086v-2.085zm-2.085 0h2.085v2.085h-2.085v-2.085zm-10.427 0h2.086v2.085h-2.086v-2.085zm-4.17 0h2.085v2.085h-2.085v-2.085zm-4.171 0h2.086v2.085h-2.086v-2.085zm-2.085 0h2.085v2.085H51.47v-2.085zm-2.085 0h2.085v2.085h-2.085v-2.085zm-10.427 0h2.086v2.085h-2.086v-2.085zm-2.085 0h2.085v2.085h-2.085v-2.085zm-2.085 0h2.085v2.085h-2.085v-2.085zm-4.171 0h2.086v2.085h-2.086v-2.085zm-2.086 0h2.086v2.085h-2.085v-2.085zm-6.255 0h2.085v2.085h-2.085v-2.085zm-2.085 0h2.085v2.085H20.19v-2.085zm-2.085 0h2.085v2.085h-2.085v-2.085zm-2.085 0h2.085v2.085h-2.086v-2.085zm-10.427 0h2.085v2.085H5.593v-2.085zm-2.086 0h2.086v2.085H3.507v-2.085zm-2.085 0h2.085v2.085H1.422v-2.085zm75.071 2.085h2.085v2.085h-2.085v-2.085zm-2.086 0h2.086v2.085h-2.086v-2.085zm-2.085 0h2.085v2.085h-2.085v-2.085zm-4.171 0h2.086v2.085H68.15v-2.085z" fill="#FF375F"/><path d="M66.066 38.957h2.085v2.085h-2.085v-2.085zm-2.086 0h2.086v2.085h-2.085v-2.085z" fill="#FF375F"/><path d="M61.895 38.957h2.086v2.085h-2.086v-2.085zm-2.085 0h2.085v2.085H59.81v-2.085zm-4.17 0h2.085v2.085H55.64v-2.085zm-2.086 0h2.086v2.085h-2.086v-2.085zm-4.17 0h2.085v2.085h-2.085v-2.085zm-2.086 0h2.086v2.085h-2.086v-2.085zm-6.255 0h2.085v2.085h-2.085v-2.085zm-2.086 0h2.086v2.085h-2.086v-2.085zm-6.255 0h2.085v2.085h-2.085v-2.085zm-4.172 0h2.086v2.085h-2.085v-2.085z" fill="#FF375F"/><path d="M26.446 38.957h2.085v2.085h-2.085v-2.085zm-4.171 0h2.085v2.085h-2.085v-2.085zm-2.085 0h2.085v2.085H20.19v-2.085zm-6.256 0h2.085v2.085h-2.085v-2.085zm-6.256 0h2.085v2.085H7.678v-2.085zm-2.085 0h2.085v2.085H5.593v-2.085zm70.9 2.085h2.085v2.086h-2.085v-2.086zm-4.171 0h2.085v2.086h-2.085v-2.086zm-2.085 0h2.085v2.086h-2.085v-2.086zm-4.171 0h2.085v2.086h-2.085v-2.086zm-6.256 0h2.085v2.086H59.81v-2.086zm-2.085 0h2.085v2.086h-2.085v-2.086zm-6.255 0h2.084v2.086H51.47v-2.086zm-8.342 0h2.085v2.086h-2.085v-2.086zm-2.085 0h2.085v2.086h-2.085v-2.086zm-2.086 0h2.086v2.086h-2.086v-2.086zm-2.085 0h2.085v2.086h-2.085v-2.086zm-10.426 0h2.085v2.086h-2.085v-2.086zm-2.086 0h2.086v2.086H24.36v-2.086zm-6.255 0h2.085v2.086h-2.085v-2.086zm-6.256 0h2.085v2.086h-2.085v-2.086zm-4.171 0h2.085v2.086H7.678v-2.086zm-2.085 0h2.085v2.086H5.593v-2.086zm-2.086 0h2.086v2.086H3.507v-2.086zm70.9 2.086h2.086v2.085h-2.086v-2.085zm-2.085 0h2.085v2.085h-2.085v-2.085zm-2.085 0h2.085v2.085h-2.085v-2.085zm-4.171 0h2.085v2.085h-2.085v-2.085zm-2.086 0h2.086v2.085h-2.085v-2.085zm-6.255 0h2.085v2.085h-2.085v-2.085zm-2.085 0h2.085v2.085H55.64v-2.085zm-12.512 0h2.085v2.085h-2.085v-2.085zm-6.256 0h2.085v2.085h-2.085v-2.085zm-6.256 0h2.086v2.085h-2.086v-2.085zm-6.256 0h2.086v2.085H24.36v-2.085zm-2.085 0h2.085v2.085h-2.085v-2.085zm-4.17 0h2.085v2.085h-2.085v-2.085zm-4.171 0h2.085v2.085h-2.085v-2.085zm-2.085 0h2.085v2.085h-2.085v-2.085zm-2.086 0h2.086v2.085H9.763v-2.085zm-6.256 0h2.086v2.085H3.507v-2.085zm-2.085 0h2.085v2.085H1.422v-2.085zm72.985 2.085h2.086v2.085h-2.086v-2.085zm-2.085 0h2.085v2.085h-2.085v-2.085zm-4.171 0h2.086v2.085H68.15v-2.085z" fill="#FF375F"/><path d="M66.066 45.213h2.085v2.085h-2.085v-2.085zm-10.426 0h2.085v2.085H55.64v-2.085zm-2.086 0h2.086v2.085h-2.086v-2.085zm-2.085 0h2.085v2.085H51.47v-2.085zm-4.171 0h2.086v2.085h-2.086v-2.085zm-2.085 0h2.085v2.085h-2.085v-2.085zm-4.17 0h2.085v2.085h-2.085v-2.085zm-4.171 0h2.085v2.085h-2.085v-2.085zm-2.085 0h2.085v2.085h-2.085v-2.085zm-2.085 0h2.085v2.085h-2.085v-2.085zm-12.512 0h2.085v2.085H20.19v-2.085zm-2.085 0h2.085v2.085h-2.085v-2.085zm-4.171 0h2.085v2.085h-2.085v-2.085z" fill="#FF375F"/><path d="M11.849 45.213h2.085v2.085h-2.085v-2.085zm-6.256 0h2.085v2.085H5.593v-2.085zm-2.086 0h2.086v2.085H3.507v-2.085zm-2.085 0h2.085v2.085H1.422v-2.085zm66.729 2.085h2.086v2.085H68.15v-2.085z" fill="#FF375F"/><path d="M66.066 47.298h2.085v2.085h-2.085v-2.085zm-2.086 0h2.086v2.085h-2.085v-2.085z" fill="#FF375F"/><path d="M61.895 47.298h2.086v2.085h-2.086v-2.085zm-2.085 0h2.085v2.085H59.81v-2.085zm-6.256 0h2.086v2.085h-2.086v-2.085zm-2.085 0h2.085v2.085H51.47v-2.085zm-4.171 0h2.086v2.085h-2.086v-2.085zm-6.255 0h2.085v2.085h-2.085v-2.085zm-6.256 0h2.085v2.085h-2.085v-2.085zm-2.085 0h2.085v2.085h-2.085v-2.085zm-4.172 0h2.086v2.085h-2.085v-2.085z" fill="#FF375F"/><path d="M26.446 47.298h2.085v2.085h-2.085v-2.085zm-4.171 0h2.085v2.085h-2.085v-2.085zm-2.085 0h2.085v2.085H20.19v-2.085zm-2.085 0h2.085v2.085h-2.085v-2.085zm-4.171 0h2.085v2.085h-2.085v-2.085zm-6.256 0h2.085v2.085H7.678v-2.085zm64.644 2.085h2.085v2.086h-2.085v-2.086zm-2.085 0h2.085v2.086h-2.085v-2.086zm-2.086 0h2.086v2.086H68.15v-2.086zm-8.341 0h2.085v2.086H59.81v-2.086zm-2.085 0h2.085v2.086h-2.085v-2.086zm-2.085 0h2.085v2.086H55.64v-2.086zm-6.256 0h2.085v2.086h-2.085v-2.086zm-2.086 0h2.086v2.086h-2.086v-2.086zm-2.085 0h2.085v2.086h-2.085v-2.086zm-2.085 0h2.085v2.086h-2.085v-2.086zm-2.085 0h2.085v2.086h-2.085v-2.086zm-2.086 0h2.086v2.086h-2.086v-2.086zm-2.085 0h2.085v2.086h-2.085v-2.086zm-2.085 0h2.085v2.086h-2.085v-2.086zm-2.085 0h2.085v2.086h-2.085v-2.086zm-2.086 0h2.086v2.086h-2.086v-2.086zm-4.17 0h2.085v2.086h-2.085v-2.086zm-2.086 0h2.086v2.086H24.36v-2.086zm-2.085 0h2.085v2.086h-2.085v-2.086zm-2.085 0h2.085v2.086H20.19v-2.086zm-2.085 0h2.085v2.086h-2.085v-2.086zm-2.085 0h2.085v2.086h-2.086v-2.086zm-2.086 0h2.085v2.086h-2.085v-2.086zm-6.256 0h2.085v2.086H7.678v-2.086zm-2.085 0h2.085v2.086H5.593v-2.086zm-2.086 0h2.086v2.086H3.507v-2.086zm-2.085 0h2.085v2.086H1.422v-2.086zm75.071 2.086h2.085v2.085h-2.085v-2.085zm-4.171 0h2.085v2.085h-2.085v-2.085zm-2.085 0h2.085v2.085h-2.085v-2.085zm-6.257 0h2.086v2.085h-2.085v-2.085z" fill="#FF375F"/><path d="M61.895 51.469h2.086v2.085h-2.086v-2.085zm-10.425 0h2.084v2.085H51.47v-2.085zm-2.086 0h2.085v2.085h-2.085v-2.085zm-2.086 0h2.086v2.085h-2.086v-2.085zm-2.085 0h2.085v2.085h-2.085v-2.085zm-6.256 0h2.086v2.085h-2.086v-2.085zm-2.085 0h2.085v2.085h-2.085v-2.085zm-2.085 0h2.085v2.085h-2.085v-2.085zm-4.171 0h2.086v2.085h-2.086v-2.085zm-2.086 0h2.086v2.085h-2.085v-2.085zm-4.17 0h2.086v2.085H24.36v-2.085zm-4.17 0h2.085v2.085H20.19v-2.085zm-2.085 0h2.085v2.085h-2.085v-2.085zm-4.171 0h2.085v2.085h-2.085v-2.085zm-4.171 0h2.086v2.085H9.763v-2.085zm-8.341 0h2.085v2.085H1.422v-2.085zm68.815 2.085h2.085v2.085h-2.085v-2.085zm-2.086 0h2.086v2.085H68.15v-2.085z" fill="#FF375F"/><path d="M66.066 53.554h2.085v2.085h-2.085v-2.085zm-8.341 0h2.085v2.085h-2.085v-2.085zm-2.085 0h2.085v2.085H55.64v-2.085zm-6.256 0h2.085v2.085h-2.085v-2.085zm-16.682 0h2.085v2.085h-2.085v-2.085zm-8.342 0h2.086v2.085H24.36v-2.085zm-8.34 0h2.085v2.085h-2.086v-2.085zm-2.086 0h2.085v2.085h-2.085v-2.085zm-8.341 0h2.085v2.085H5.593v-2.085zm70.9 2.086h2.085v2.085h-2.085v-2.086zm-4.171 0h2.085v2.085h-2.085v-2.086zm-2.085 0h2.085v2.085h-2.085v-2.086zm-2.086 0h2.086v2.085H68.15v-2.086z" fill="#FF375F"/><path d="M66.066 55.64h2.085v2.085h-2.085v-2.086zm-2.086 0h2.086v2.085h-2.085v-2.086z" fill="#FF375F"/><path d="M61.895 55.64h2.086v2.085h-2.086v-2.086zm-6.255 0h2.085v2.085H55.64v-2.086zm-2.086 0h2.086v2.085h-2.086v-2.086zm-4.17 0h2.085v2.085h-2.085v-2.086zm-10.427 0h2.086v2.085h-2.086v-2.086zm-6.255 0h2.085v2.085h-2.085v-2.086zm-6.256 0h2.085v2.085h-2.085v-2.086zm-2.086 0h2.086v2.085H24.36v-2.086zm-2.085 0h2.085v2.085h-2.085v-2.086z" fill="#FF375F"/><path d="M20.19 55.64h2.085v2.085H20.19v-2.086zm-2.085 0h2.085v2.085h-2.085v-2.086zm-2.085 0h2.085v2.085h-2.086v-2.086zm-2.086 0h2.085v2.085h-2.085v-2.086zm-6.256 0h2.085v2.085H7.678v-2.086zm-2.085 0h2.085v2.085H5.593v-2.086zm70.9 2.085h2.085v2.085h-2.085v-2.085zm-8.342 0h2.086v2.085H68.15v-2.085zm-8.341 0h2.085v2.085H59.81v-2.085zm-2.085 0h2.085v2.085h-2.085v-2.085zm-2.085 0h2.085v2.085H55.64v-2.085zm-6.256 0h2.085v2.085h-2.085v-2.085zm-2.086 0h2.086v2.085h-2.086v-2.085zm-6.255 0h2.085v2.085h-2.085v-2.085zm-2.086 0h2.086v2.085h-2.086v-2.085zm-2.085 0h2.085v2.085h-2.085v-2.085zm-4.17 0h2.085v2.085h-2.085v-2.085zm-2.086 0h2.086v2.085h-2.086v-2.085zm-4.17 0h2.085v2.085h-2.085v-2.085zm-2.086 0h2.086v2.085H24.36v-2.085zm-2.085 0h2.085v2.085h-2.085v-2.085zm-4.17 0h2.085v2.085h-2.085v-2.085zm-6.256 0h2.085v2.085h-2.085v-2.085zm-4.171 0h2.085v2.085H7.678v-2.085zm-2.085 0h2.085v2.085H5.593v-2.085zm-2.086 0h2.086v2.085H3.507v-2.085zm-2.085 0h2.085v2.085H1.422v-2.085zm75.071 2.085h2.085v2.085h-2.085V59.81zm-6.256 0h2.085v2.085h-2.085V59.81zm-2.086 0h2.086v2.085H68.15V59.81z" fill="#FF375F"/><path d="M66.066 59.81h2.085v2.085h-2.085V59.81zm-2.086 0h2.086v2.085h-2.085V59.81zm-8.34 0h2.085v2.085H55.64V59.81zm-2.086 0h2.086v2.085h-2.086V59.81zm-4.17 0h2.085v2.085h-2.085V59.81zm-6.256 0h2.085v2.085h-2.085V59.81zm-2.085 0h2.085v2.085h-2.085V59.81zm-8.341 0h2.085v2.085h-2.085V59.81zm-2.086 0h2.086v2.085h-2.086V59.81zm-6.256 0h2.086v2.085H24.36V59.81zm-4.17 0h2.085v2.085H20.19V59.81zm-2.085 0h2.085v2.085h-2.085V59.81zm-2.085 0h2.085v2.085h-2.086V59.81zm-2.086 0h2.085v2.085h-2.085V59.81z" fill="#FF375F"/><path d="M11.849 59.81h2.085v2.085h-2.085V59.81zm-2.086 0h2.086v2.085H9.763V59.81zm50.047 2.085h2.085v2.085H59.81v-2.085zm-2.085 0h2.085v2.085h-2.085v-2.085zm-2.085 0h2.085v2.085H55.64v-2.085zm-2.086 0h2.086v2.085h-2.086v-2.085zm-2.084 0h2.084v2.085H51.47v-2.085zm-4.172 0h2.086v2.085h-2.086v-2.085zm-4.17 0h2.085v2.085h-2.085v-2.085zm-6.256 0h2.085v2.085h-2.085v-2.085zm-2.085 0h2.085v2.085h-2.085v-2.085zm-8.341 0h2.085v2.085h-2.085v-2.085zm-4.171 0h2.085v2.085h-2.085v-2.085zm-4.17 0h2.085v2.085h-2.085v-2.085zm-8.342 0h2.086v2.085H9.763v-2.085zm-2.085 0h2.085v2.085H7.678v-2.085zm-4.171 0h2.086v2.085H3.507v-2.085zm-2.085 0h2.085v2.085H1.422v-2.085zm75.071 2.085h2.085v2.086h-2.085V63.98zm-2.086 0h2.086v2.086h-2.086V63.98zm-2.085 0h2.085v2.086h-2.085V63.98zm-2.085 0h2.085v2.086h-2.085V63.98zm-2.086 0h2.086v2.086H68.15V63.98z" fill="#FF375F"/><path d="M66.066 63.98h2.085v2.086h-2.085V63.98zm-2.086 0h2.086v2.086h-2.085V63.98zm-4.17 0h2.085v2.086H59.81V63.98zm-8.341 0h2.085v2.086H51.47V63.98zm-4.171 0h2.086v2.086h-2.086V63.98zm-4.17 0h2.085v2.086h-2.085V63.98zm-4.171 0h2.086v2.086h-2.086V63.98zm-4.17 0h2.085v2.086h-2.085V63.98zm-4.171 0h2.086v2.086h-2.086V63.98zm-4.17 0h2.085v2.086h-2.085V63.98zm-8.341 0h2.085v2.086h-2.085V63.98zm-4.171 0h2.085v2.086h-2.085V63.98zm-4.171 0h2.086v2.086H9.763V63.98zm-2.085 0h2.085v2.086H7.678V63.98zm-2.085 0h2.085v2.086H5.593V63.98zm-4.171 0h2.085v2.086H1.422V63.98zm75.071 2.086h2.085v2.085h-2.085v-2.085zm-12.513 0h2.086v2.085h-2.085v-2.085zm-4.17 0h2.085v2.085H59.81v-2.085zm-4.17 0h2.085v2.085H55.64v-2.085zm-8.342 0h2.086v2.085h-2.086v-2.085zm-2.085 0h2.085v2.085h-2.085v-2.085zm-2.085 0h2.085v2.085h-2.085v-2.085zm-4.171 0h2.086v2.085h-2.086v-2.085zm-2.085 0h2.085v2.085h-2.085v-2.085zm-2.085 0h2.085v2.085h-2.085v-2.085zm-2.085 0h2.085v2.085h-2.085v-2.085zm-2.086 0h2.086v2.085h-2.086v-2.085zm-2.086 0h2.086v2.085h-2.085v-2.085zm-8.34 0h2.085v2.085H20.19v-2.085zm-2.085 0h2.085v2.085h-2.085v-2.085zm-8.342 0h2.086v2.085H9.763v-2.085zm-2.085 0h2.085v2.085H7.678v-2.085zm-6.256 0h2.085v2.085H1.422v-2.085zm75.071 2.085h2.085v2.085h-2.085v-2.085zm-4.171 0h2.085v2.085h-2.085v-2.085zm-2.085 0h2.085v2.085h-2.085v-2.085zm-2.086 0h2.086v2.085H68.15v-2.085zm-4.171 0h2.086v2.085h-2.085v-2.085zm-4.17 0h2.085v2.085H59.81v-2.085zm-2.085 0h2.085v2.085h-2.085v-2.085zm-8.341 0h2.085v2.085h-2.085v-2.085zm-2.086 0h2.086v2.085h-2.086v-2.085zm-2.085 0h2.085v2.085h-2.085v-2.085zm-4.17 0h2.085v2.085h-2.085v-2.085zm-2.086 0h2.086v2.085h-2.086v-2.085zm-6.255 0h2.085v2.085h-2.085v-2.085zm-2.086 0h2.086v2.085h-2.086v-2.085zm-2.086 0h2.086v2.085h-2.085v-2.085zm-4.17 0h2.086v2.085H24.36v-2.085zm-2.085 0h2.085v2.085h-2.085v-2.085z" fill="#FF375F"/><path d="M20.19 68.151h2.085v2.085H20.19v-2.085zm-2.085 0h2.085v2.085h-2.085v-2.085zm-2.085 0h2.085v2.085h-2.086v-2.085zm-2.086 0h2.085v2.085h-2.085v-2.085z" fill="#FF375F"/><path d="M11.849 68.151h2.085v2.085h-2.085v-2.085zm-2.086 0h2.086v2.085H9.763v-2.085zm-6.256 0h2.086v2.085H3.507v-2.085zm72.986 2.085h2.085v2.086h-2.085v-2.086zm-4.171 0h2.085v2.086h-2.085v-2.086zm-2.085 0h2.085v2.086h-2.085v-2.086zm-2.086 0h2.086v2.086H68.15v-2.086zm-4.171 0h2.086v2.086h-2.085v-2.086zm-4.17 0h2.085v2.086H59.81v-2.086zm-2.085 0h2.085v2.086h-2.085v-2.086zm-2.085 0h2.085v2.086H55.64v-2.086zm-2.086 0h2.086v2.086h-2.086v-2.086zm-2.084 0h2.084v2.086H51.47v-2.086zm-2.086 0h2.085v2.086h-2.085v-2.086zm-2.086 0h2.086v2.086h-2.086v-2.086zm-4.17 0h2.085v2.086h-2.085v-2.086zm-2.085 0h2.085v2.086h-2.085v-2.086zm-6.256 0h2.085v2.086h-2.085v-2.086zm-4.171 0h2.086v2.086h-2.086v-2.086zm-4.17 0h2.085v2.086h-2.085v-2.086zm-4.171 0h2.085v2.086h-2.085v-2.086zm-4.17 0h2.085v2.086h-2.085v-2.086zm-6.256 0h2.085v2.086h-2.085v-2.086zm-2.086 0h2.086v2.086H9.763v-2.086zm-2.085 0h2.085v2.086H7.678v-2.086zm-4.171 0h2.086v2.086H3.507v-2.086zm72.986 2.086h2.085v2.085h-2.085v-2.085zm-4.171 0h2.085v2.085h-2.085v-2.085zm-2.085 0h2.085v2.085h-2.085v-2.085zm-2.086 0h2.086v2.085H68.15v-2.085zm-4.171 0h2.086v2.085h-2.085v-2.085zm-8.34 0h2.085v2.085H55.64v-2.085zm-2.086 0h2.086v2.085h-2.086v-2.085zm-2.085 0h2.085v2.085H51.47v-2.085zm-4.171 0h2.086v2.085h-2.086v-2.085zm-2.085 0h2.085v2.085h-2.085v-2.085zm-2.085 0h2.085v2.085h-2.085v-2.085zm-2.085 0h2.085v2.085h-2.085v-2.085zm-2.086 0h2.086v2.085h-2.086v-2.085zm-2.085 0h2.085v2.085h-2.085v-2.085zm-2.085 0h2.085v2.085h-2.085v-2.085zm-4.171 0h2.086v2.085h-2.086v-2.085zm-2.086 0h2.086v2.085h-2.085v-2.085z" fill="#FF375F"/><path d="M26.446 72.322h2.085v2.085h-2.085v-2.085zm-6.256 0h2.085v2.085H20.19v-2.085zm-2.085 0h2.085v2.085h-2.085v-2.085zm-6.256 0h2.085v2.085h-2.085v-2.085zm-2.086 0h2.086v2.085H9.763v-2.085zm-4.17 0h2.085v2.085H5.593v-2.085zm-2.086 0h2.086v2.085H3.507v-2.085zm-2.085 0h2.085v2.085H1.422v-2.085zm75.071 2.085h2.085v2.085h-2.085v-2.085zm-12.513 0h2.086v2.085h-2.085v-2.085zm-6.255 0h2.085v2.085h-2.085v-2.085zm-4.171 0h2.086v2.085h-2.086v-2.085zm-2.085 0h2.085v2.085H51.47v-2.085zm-10.426 0h2.085v2.085h-2.085v-2.085zm-4.171 0h2.085v2.085h-2.085v-2.085zm-10.426 0h2.085v2.085h-2.085v-2.085zm-10.426 0h2.085v2.085h-2.086v-2.085zm-2.086 0h2.085v2.085h-2.085v-2.085zm-10.427 0h2.086v2.085H3.507v-2.085zm-2.085 0h2.085v2.085H1.422v-2.085zm75.071 2.085h2.085v2.085h-2.085v-2.085zm-2.086 0h2.086v2.085h-2.086v-2.085zm-2.085 0h2.085v2.085h-2.085v-2.085zm-2.085 0h2.085v2.085h-2.085v-2.085zm-2.086 0h2.086v2.085H68.15v-2.085z" fill="#FF375F"/><path d="M66.066 76.492h2.085v2.085h-2.085v-2.085zm-2.086 0h2.086v2.085h-2.085v-2.085zm-4.17 0h2.085v2.085H59.81v-2.085zm-8.341 0h2.085v2.085H51.47v-2.085zm-22.939 0h2.086v2.085h-2.085v-2.085zm-8.34 0h2.085v2.085H20.19v-2.085zm-2.085 0h2.085v2.085h-2.085v-2.085zm-6.256 0h2.085v2.085h-2.085v-2.085zm-2.086 0h2.086v2.085H9.763v-2.085zm-2.085 0h2.085v2.085H7.678v-2.085zm-6.256 0h2.085v2.085H1.422v-2.085z" fill="#FF375F"/></svg>